<svg width="35" height="34" viewBox="0 0 35 34" fill="none" xmlns="http://www.w3.org/2000/svg">
<path d="M5.5 31.3334C6.96568 31.3334 6.96568 30.1015 8.43136 30.1015C9.89705 30.1015 9.89705 31.3334 11.3627 31.3334C12.8261 31.3334 12.8261 30.1015 14.2894 30.1015C15.7523 30.1015 15.7523 31.3334 17.2153 31.3334C18.678 31.3334 18.678 30.1015 20.1408 30.1015C21.6019 30.1015 21.6019 31.3334 23.063 31.3334C24.5221 31.3334 24.5221 30.1015 25.9813 30.1015C27.4436 30.1015 27.4436 31.3334 28.9058 31.3334L28.1197 25.8302C27.8229 23.7528 27.6739 21.657 27.6739 19.5585V13.8297C27.6739 8.25265 23.4654 3.38298 17.9 3.02261C11.8014 2.62771 6.73189 7.45729 6.73189 13.471V19.5585C6.73189 21.657 6.58294 23.7528 6.28617 25.8302L5.5 31.3334Z" stroke="#333638" stroke-width="2" stroke-miterlimit="10" stroke-linecap="round" stroke-linejoin="round"/>
<path d="M13.5066 15.3187C13.8467 15.3187 14.1225 14.4914 14.1225 13.4709C14.1225 12.4503 13.8467 11.623 13.5066 11.623C13.1664 11.623 12.8906 12.4503 12.8906 13.4709C12.8906 14.4914 13.1664 15.3187 13.5066 15.3187Z" stroke="#333638" stroke-width="2" stroke-miterlimit="10" stroke-linecap="round" stroke-linejoin="round"/>
<path d="M20.8991 15.3187C21.2393 15.3187 21.5151 14.4914 21.5151 13.4709C21.5151 12.4503 21.2393 11.623 20.8991 11.623C20.559 11.623 20.2832 12.4503 20.2832 13.4709C20.2832 14.4914 20.559 15.3187 20.8991 15.3187Z" stroke="#333638" stroke-width="2" stroke-miterlimit="10" stroke-linecap="round" stroke-linejoin="round"/>
</svg>
