<svg width="35" height="34" viewBox="0 0 35 34" fill="none" xmlns="http://www.w3.org/2000/svg">
<path d="M27.4167 15.5833C27.4167 10.1065 22.9768 5.66663 17.5 5.66663C12.0232 5.66663 7.58333 10.1065 7.58333 15.5833M23.1667 20.5416V23.375C23.1667 24.0332 23.1667 24.3624 23.2211 24.636C23.4447 25.76 24.3233 26.6391 25.4473 26.8627C25.721 26.9171 26.0501 26.9171 26.7083 26.9171C27.3666 26.9171 27.6957 26.9171 27.9694 26.8627C29.0934 26.6391 29.9718 25.76 30.1954 24.636C30.2498 24.3624 30.25 24.0332 30.25 23.375V20.5416C30.25 19.8834 30.2498 19.5536 30.1954 19.2799C29.9718 18.156 29.0934 17.278 27.9694 17.0544C27.6957 17 27.3666 17 26.7083 17C26.0501 17 25.721 17 25.4473 17.0544C24.3233 17.278 23.4447 18.156 23.2211 19.2799C23.1667 19.5536 23.1667 19.8834 23.1667 20.5416ZM11.8333 20.5416V23.375C11.8333 24.0332 11.8331 24.3624 11.7787 24.636C11.5551 25.76 10.6767 26.6391 9.55269 26.8627C9.279 26.9171 8.94998 26.9171 8.29173 26.9171C7.63347 26.9171 7.30434 26.9171 7.03064 26.8627C5.90668 26.6391 5.02801 25.76 4.80444 24.636C4.75 24.3624 4.75 24.0332 4.75 23.375V20.5416C4.75 19.8834 4.75 19.5536 4.80444 19.2799C5.02801 18.156 5.90668 17.278 7.03064 17.0544C7.30434 17 7.63347 17 8.29173 17C8.94999 17 9.279 17 9.55269 17.0544C10.6767 17.278 11.5551 18.156 11.7787 19.2799C11.8331 19.5536 11.8333 19.8834 11.8333 20.5416Z" stroke="#333638" stroke-width="2" stroke-linecap="round" stroke-linejoin="round"/>
</svg>
