<svg width="35" height="34" viewBox="0 0 35 34" fill="none" xmlns="http://www.w3.org/2000/svg">
<path d="M17.5008 19.832H18.9175C20.4758 19.832 21.7508 18.557 21.7508 16.9987V2.83203H9.00079C6.87579 2.83203 5.01997 4.00785 4.05664 5.73618" stroke="#333638" stroke-width="2" stroke-linecap="round" stroke-linejoin="round"/>
<path d="M3.33203 24.082C3.33203 26.4337 5.23036 28.332 7.58203 28.332H8.9987C8.9987 26.7737 10.2737 25.4987 11.832 25.4987C13.3904 25.4987 14.6654 26.7737 14.6654 28.332H20.332C20.332 26.7737 21.607 25.4987 23.1654 25.4987C24.7237 25.4987 25.9987 26.7737 25.9987 28.332H27.4154C29.767 28.332 31.6654 26.4337 31.6654 24.082V19.832H27.4154C26.6362 19.832 25.9987 19.1945 25.9987 18.4154V14.1654C25.9987 13.3862 26.6362 12.7487 27.4154 12.7487H29.2428L26.8204 8.51288C26.3104 7.63455 25.3754 7.08203 24.3554 7.08203H21.7487V16.9987C21.7487 18.557 20.4737 19.832 18.9154 19.832H17.4987" stroke="#333638" stroke-width="2" stroke-linecap="round" stroke-linejoin="round"/>
<path d="M11.8333 31.1667C13.3981 31.1667 14.6667 29.8981 14.6667 28.3333C14.6667 26.7685 13.3981 25.5 11.8333 25.5C10.2685 25.5 9 26.7685 9 28.3333C9 29.8981 10.2685 31.1667 11.8333 31.1667Z" stroke="#333638" stroke-width="2" stroke-linecap="round" stroke-linejoin="round"/>
<path d="M23.1654 31.1667C24.7302 31.1667 25.9987 29.8981 25.9987 28.3333C25.9987 26.7685 24.7302 25.5 23.1654 25.5C21.6006 25.5 20.332 26.7685 20.332 28.3333C20.332 29.8981 21.6006 31.1667 23.1654 31.1667Z" stroke="#333638" stroke-width="2" stroke-linecap="round" stroke-linejoin="round"/>
<path d="M31.6667 17V19.8333H27.4167C26.6375 19.8333 26 19.1958 26 18.4167V14.1667C26 13.3875 26.6375 12.75 27.4167 12.75H29.2441L31.6667 17Z" stroke="#333638" stroke-width="2" stroke-linecap="round" stroke-linejoin="round"/>
<path d="M3.33203 11.332H11.832" stroke="#333638" stroke-width="2" stroke-linecap="round" stroke-linejoin="round"/>
<path d="M3.33203 15.582H8.9987" stroke="#333638" stroke-width="2" stroke-linecap="round" stroke-linejoin="round"/>
<path d="M3.33203 19.832H6.16536" stroke="#333638" stroke-width="2" stroke-linecap="round" stroke-linejoin="round"/>
</svg>
