<svg width="104" height="92" viewBox="0 0 104 92" fill="none" xmlns="http://www.w3.org/2000/svg">
<path d="M69.0182 48.8305L26.2195 91.6292H0V0.364159H51.565L18.0888 33.8669C12.1828 39.7729 10.3819 44.6725 10.4348 49.4661C10.5143 54.2333 12.3417 58.974 15.8906 62.4964C19.4925 66.1248 24.0743 67.9522 28.8679 68.0052C33.6351 68.0846 38.6407 66.2572 44.5467 60.3247L62.556 42.3419C64.251 40.6204 65.4163 40.0907 66.6876 40.1701C67.8529 40.1701 69.0447 40.6733 69.9452 41.6003C70.7662 42.3948 71.1899 43.3483 71.2694 44.3547C71.4018 45.6789 70.8456 46.9766 69.0182 48.8305Z" fill="#00B4E1"/>
<path d="M103.58 45.9172C103.58 57.9146 99.1307 68.7202 91.8475 76.692C83.4785 85.8291 71.481 91.5233 55.1667 91.5233V91.6292H48.8899L82.4721 58.047C87.716 52.8031 89.4639 47.4798 89.0666 42.2624C88.7488 37.866 86.9214 33.549 83.6903 30.3444C80.2209 26.8749 75.5332 25.021 70.713 24.9681C65.9458 24.8886 61.0197 26.6631 56.0672 31.6157L36.6012 51.0816C35.224 52.4588 34.3765 52.962 33.3966 52.9885C32.2313 53.1209 30.907 52.7502 29.9271 51.7702C29.0002 50.8168 28.5499 49.7309 28.5234 48.5656C28.5234 47.4798 29.0002 46.3939 30.4568 44.9373L72.5139 2.88013C78.9496 4.94591 84.3525 8.20348 88.8548 12.335C97.886 20.7306 103.58 32.728 103.58 45.9172Z" fill="#00B4E1"/>
<path d="M38.4813 91.9999C38.4019 91.9999 38.296 91.9734 38.2165 91.894C38.0841 91.7616 38.0841 91.5232 38.2165 91.3643L39.5142 90.0136C39.6731 89.8547 39.9115 89.8547 40.0704 89.9871C40.2028 90.146 40.2028 90.3844 40.0704 90.5433L38.7462 91.894C38.6932 91.9734 38.5873 91.9999 38.4813 91.9999Z" fill="#03033D"/>
<path d="M42.4544 87.895C42.375 87.895 42.269 87.8685 42.1896 87.789C42.0571 87.6301 42.0571 87.3918 42.1896 87.2594L44.8645 84.505C44.9969 84.3461 45.2353 84.3461 45.3942 84.4785C45.5266 84.6374 45.5531 84.8758 45.3942 85.0347L42.7193 87.789C42.6663 87.842 42.5603 87.895 42.4544 87.895ZM47.7778 82.3862C47.6983 82.3862 47.5924 82.3597 47.5394 82.2803C47.3805 82.1214 47.3805 81.883 47.5129 81.7506L50.1879 78.9962C50.3203 78.8373 50.5586 78.8373 50.7175 78.9698C50.8765 79.1287 50.8765 79.367 50.7175 79.5259L48.0691 82.2803C47.9897 82.3333 47.8837 82.3862 47.7778 82.3862ZM53.1276 76.8775C53.0217 76.8775 52.9157 76.851 52.8628 76.7716C52.7039 76.6391 52.7039 76.3743 52.8363 76.2419L55.5112 73.4875C55.6436 73.3286 55.882 73.3286 56.0409 73.4875C56.1998 73.6199 56.1998 73.8583 56.0409 74.0172L53.3925 76.7716C53.313 76.851 53.2071 76.8775 53.1276 76.8775ZM58.451 71.3687C58.345 71.3687 58.2656 71.3423 58.1861 71.2628C58.0272 71.1304 58.0272 70.892 58.1861 70.7331L60.8346 67.9787C60.9935 67.8198 61.2318 67.8198 61.3642 67.9787C61.5231 68.1112 61.5231 68.3495 61.3907 68.5084L58.7158 71.2628C58.6364 71.3423 58.5304 71.3687 58.451 71.3687ZM63.7743 65.86C63.6684 65.86 63.5889 65.8335 63.5095 65.7541C63.3506 65.6216 63.3506 65.3833 63.5095 65.2244L66.1579 62.47C66.3168 62.3111 66.5552 62.3111 66.6876 62.47C66.8465 62.6024 66.8465 62.8408 66.7141 62.9997L64.0392 65.7541C63.9597 65.8335 63.8802 65.86 63.7743 65.86ZM29.0533 60.7485C28.7002 60.7485 28.3559 60.7309 28.0204 60.6955C27.8086 60.6955 27.6497 60.5102 27.6762 60.2983C27.6762 60.0864 27.8616 59.9275 28.0734 59.954C29.2917 60.0599 30.51 59.954 31.7548 59.6891C31.9666 59.6362 32.1785 59.7686 32.205 59.9805C32.2579 60.1924 32.1255 60.3777 31.9401 60.4307C30.9602 60.6426 29.9803 60.7485 29.0533 60.7485ZM69.0977 60.3513C68.9918 60.3513 68.9123 60.3248 68.8328 60.2453C68.7004 60.1129 68.6739 59.8745 68.8328 59.7156L71.4813 56.9613C71.6402 56.8024 71.8785 56.8024 72.0374 56.9613C72.1699 57.0937 72.1699 57.332 72.0374 57.4909L69.3625 60.2453C69.2831 60.3248 69.2036 60.3513 69.0977 60.3513ZM24.3656 59.7156C24.3127 59.7156 24.2597 59.7068 24.2067 59.6891C23.2268 59.2389 22.2998 58.6563 21.4523 57.9147C21.2758 57.7734 21.108 57.6322 20.9491 57.4909C20.7902 57.332 20.7902 57.0937 20.9227 56.9613C21.0551 56.8024 21.2934 56.7759 21.4523 56.9348C21.6112 57.076 21.7701 57.2173 21.929 57.3585C22.7501 58.0206 23.6241 58.5768 24.5245 59.0006C24.7099 59.1065 24.7893 59.3184 24.7099 59.5038C24.6304 59.6362 24.498 59.7156 24.3656 59.7156ZM35.4626 59.1859C35.3301 59.1859 35.1977 59.1065 35.1183 58.9741C35.0388 58.7887 35.1182 58.5503 35.3036 58.4709C36.9721 57.6763 38.111 56.8288 38.2434 56.7229L38.4553 56.511C38.5877 56.3786 38.8261 56.3786 38.985 56.511C39.1174 56.6699 39.1174 56.9083 38.985 57.0407C38.8525 57.1731 38.7731 57.2526 38.7201 57.3056C38.6672 57.332 37.5019 58.259 35.6215 59.1595C35.5685 59.1771 35.5155 59.1859 35.4626 59.1859ZM74.421 54.8425C74.3416 54.8425 74.2356 54.816 74.1562 54.7366C74.0238 54.6042 74.0238 54.3658 74.1562 54.2069L76.2749 52.0352C76.4515 51.841 76.6192 51.6467 76.7782 51.4525C76.9106 51.2936 77.1489 51.2671 77.3078 51.3995C77.4667 51.532 77.4932 51.7703 77.3608 51.9292C77.1842 52.1411 76.9988 52.3442 76.8046 52.5384L74.6859 54.7366C74.6329 54.816 74.527 54.8425 74.421 54.8425ZM18.9363 54.5247C18.8039 54.5247 18.645 54.4452 18.592 54.3128C18.1153 53.227 17.877 52.0617 17.877 50.8699C17.877 50.711 17.877 50.552 17.877 50.3931C17.9034 50.1813 18.0623 50.0224 18.2742 50.0488C18.4861 50.0488 18.645 50.2342 18.645 50.4461C18.6273 50.5874 18.6185 50.7286 18.6185 50.8699C18.6185 51.9557 18.8569 53.0151 19.2806 53.995C19.3601 54.1804 19.2806 54.3923 19.0952 54.4982C19.0423 54.5159 18.9893 54.5247 18.9363 54.5247ZM41.448 54.4717C41.3686 54.4717 41.2626 54.4188 41.1832 54.3393C41.0508 54.2069 41.0508 53.9685 41.1832 53.8096C42.0042 53.0151 42.9312 52.1146 43.9376 51.1347C44.0965 50.9758 44.3348 50.9758 44.4672 51.1347C44.6262 51.2671 44.5997 51.5055 44.4672 51.6644C43.4608 52.6443 42.5339 53.5713 41.7129 54.3658C41.6334 54.4188 41.554 54.4717 41.448 54.4717ZM46.9567 49.0954C46.8508 49.0954 46.7449 49.0424 46.6919 48.963C46.533 48.8306 46.533 48.5922 46.6919 48.4333C47.5924 47.5593 48.5193 46.6588 49.4463 45.7584C49.6052 45.626 49.8435 45.626 49.976 45.7849C50.1084 45.9173 50.1084 46.1556 49.976 46.3145C49.049 47.1885 48.1221 48.089 47.2216 48.9895C47.1421 49.0424 47.0362 49.0954 46.9567 49.0954ZM79.0823 48.8306C79.0293 48.8306 78.9763 48.8217 78.9234 48.8041C78.738 48.7246 78.6585 48.4863 78.738 48.3009C79.2412 47.1356 79.559 45.9438 79.6649 44.7255C79.6649 44.5136 79.8503 44.3547 80.0622 44.3812C80.2741 44.4077 80.433 44.5931 80.4065 44.7785C80.3006 46.0762 79.9563 47.3739 79.4266 48.5922C79.3736 48.7511 79.2147 48.8306 79.0823 48.8306ZM19.1482 47.0826C19.0952 47.0826 19.0423 47.0738 18.9893 47.0561C18.8039 46.9767 18.7245 46.7648 18.8039 46.5529C19.2541 45.4406 19.8633 44.3017 20.6578 43.1364C20.7637 42.951 21.0021 42.9246 21.1875 43.0305C21.3464 43.1364 21.3994 43.3748 21.2669 43.5602C20.5254 44.6725 19.9162 45.7849 19.4925 46.8442C19.4395 47.0031 19.2806 47.0826 19.1482 47.0826ZM52.4655 43.7456C52.3861 43.7456 52.2801 43.7191 52.2007 43.6396C52.0682 43.4807 52.0682 43.2424 52.2007 43.1099C53.2071 42.1565 54.134 41.256 55.008 40.4615C55.1669 40.3291 55.4053 40.3291 55.5377 40.488C55.6701 40.6204 55.6701 40.8588 55.5112 41.0177C54.6637 41.8122 53.7103 42.7127 52.7304 43.6396C52.6509 43.7191 52.5714 43.7456 52.4655 43.7456ZM79.7179 41.3355C79.559 41.3355 79.4001 41.2296 79.3471 41.0442C79.2765 40.7793 79.197 40.5145 79.1088 40.2496C78.9763 39.8789 78.5791 38.8724 77.7845 37.7336C77.6521 37.5482 77.7051 37.3364 77.864 37.2039C78.0229 37.0715 78.2613 37.1245 78.3937 37.2834C79.2412 38.5281 79.6649 39.5875 79.8239 40.0113C79.9298 40.2938 80.0181 40.5763 80.0887 40.8588C80.1417 41.0706 80.0092 41.256 79.8239 41.309C79.7885 41.3267 79.7532 41.3355 79.7179 41.3355ZM23.3327 40.6999C23.2268 40.6999 23.1473 40.6734 23.0679 40.5939C22.909 40.4615 22.909 40.2231 23.0414 40.0642C23.4652 39.614 23.9154 39.1373 24.3656 38.6871C24.6305 38.3957 25.0807 37.9455 25.7163 37.2834C25.8752 37.151 26.1136 37.151 26.246 37.2834C26.4049 37.4423 26.4049 37.6806 26.2725 37.8131C25.6369 38.4752 25.1601 38.9519 24.8953 39.2167C24.4539 39.6581 24.0213 40.1084 23.5976 40.5674C23.5181 40.6469 23.4387 40.6999 23.3327 40.6999ZM58.0802 38.5017C57.9742 38.5017 57.8948 38.4752 57.8153 38.3957C57.6564 38.2368 57.6829 37.9985 57.8418 37.8396C58.4068 37.3452 58.8394 36.9832 59.1395 36.7537C59.2808 36.6478 59.4397 36.5153 59.6163 36.3564C59.9606 36.0916 60.3843 35.7473 60.861 35.403C61.0199 35.2971 61.2583 35.3235 61.3907 35.5089C61.4967 35.6678 61.4702 35.9062 61.2848 36.0121C60.8346 36.3564 60.4373 36.6742 60.093 36.9391C59.9165 37.098 59.7487 37.2392 59.5898 37.3628C59.3073 37.5747 58.8924 37.9278 58.345 38.4222C58.2656 38.4752 58.1861 38.5017 58.0802 38.5017ZM75.4009 35.1646C75.3303 35.1646 75.2597 35.147 75.1891 35.1117C74.6064 34.7144 73.9973 34.3701 73.3617 34.0788C72.8673 33.8669 72.3641 33.6992 71.852 33.5756C71.6402 33.5226 71.5077 33.3372 71.5607 33.1253C71.6137 32.9135 71.8256 32.8075 72.0374 32.8605C72.5848 32.9841 73.1233 33.1607 73.653 33.3902C74.3416 33.6815 75.0037 34.0523 75.6128 34.5025C75.7982 34.6085 75.8247 34.8468 75.7188 35.0057C75.6393 35.1117 75.5069 35.1646 75.4009 35.1646ZM28.6561 35.1646C28.5766 35.1646 28.4707 35.1382 28.3912 35.0587C28.2588 34.9263 28.2588 34.6879 28.3912 34.529L31.0661 31.7746C31.1986 31.6157 31.4369 31.6157 31.5958 31.7746C31.7547 31.9071 31.7547 32.1454 31.5958 32.3043L28.9474 35.0587C28.8679 35.1382 28.762 35.1646 28.6561 35.1646ZM64.4099 34.2377C64.2775 34.2377 64.1186 34.1582 64.0657 33.9993C63.9862 33.8139 64.0921 33.5756 64.2775 33.5226C64.7719 33.3284 65.2839 33.1607 65.8136 33.0194C66.2639 32.9135 67.0849 32.7016 68.0913 32.5957C68.3031 32.5692 68.4885 32.7281 68.515 32.94C68.515 33.1518 68.3826 33.3372 68.1707 33.3372C67.2968 33.4432 66.5817 33.6021 65.999 33.761C65.5046 33.8846 65.0191 34.0346 64.5424 34.2112C64.507 34.2289 64.4629 34.2377 64.4099 34.2377ZM34.0059 29.6559C33.9 29.6559 33.8205 29.6029 33.7411 29.55C33.5822 29.3911 33.5822 29.1527 33.7411 29.0203L36.3895 26.2394C36.5484 26.107 36.7868 26.107 36.9192 26.2394C37.0781 26.3718 37.0781 26.6102 36.9457 26.7691L34.2708 29.5235C34.1913 29.6029 34.0854 29.6559 34.0059 29.6559ZM39.3293 24.1207C39.2233 24.1207 39.1439 24.0942 39.0644 24.0147C38.9055 23.8823 38.9055 23.6439 39.0644 23.485L41.7129 20.7307C41.8718 20.5718 42.1101 20.5718 42.2426 20.7042C42.4015 20.8631 42.4015 21.1014 42.269 21.2339L39.5941 24.0147C39.5147 24.0942 39.4352 24.1207 39.3293 24.1207ZM44.6526 18.5854C44.5467 18.5854 44.4672 18.559 44.3878 18.4795C44.2289 18.3471 44.2289 18.1087 44.3878 17.9498L47.0362 15.1954C47.1951 15.0365 47.4335 15.0365 47.5659 15.169C47.7248 15.3279 47.7248 15.5662 47.5924 15.6986L44.9175 18.4795C44.838 18.559 44.7586 18.5854 44.6526 18.5854ZM49.976 13.0502C49.87 13.0502 49.7906 13.0237 49.7111 12.9443C49.5522 12.8118 49.5522 12.5735 49.6847 12.4146L52.3596 9.66021C52.492 9.5013 52.7303 9.50131 52.8893 9.63373C53.0482 9.79263 53.0482 10.031 52.8893 10.1899L50.2408 12.9443C50.1614 13.0237 50.0554 13.0502 49.976 13.0502ZM55.2993 7.51498C55.1934 7.51498 55.1139 7.48849 55.0345 7.40904C54.8756 7.27662 54.8756 7.03826 55.008 6.87935L57.6829 4.12498C57.8153 3.96608 58.0537 3.96608 58.2126 4.0985C58.3715 4.2574 58.3715 4.49576 58.2126 4.62818L55.5642 7.40904C55.4847 7.48849 55.3788 7.51498 55.2993 7.51498Z" fill="white"/>
<path d="M60.4911 2.11213C60.4117 2.11213 60.3057 2.05916 60.2263 2.00619C60.0938 1.84728 60.0938 1.60892 60.2263 1.4765L61.524 0.0993163C61.6829 -0.0331054 61.9212 -0.0331054 62.0537 0.0993163C62.2126 0.258222 62.2126 0.496582 62.0802 0.629003L60.7824 1.9797C60.703 2.05916 60.5971 2.11213 60.4911 2.11213Z" fill="#03033D"/>
</svg>
