<svg width="140" height="40" viewBox="0 0 140 40" fill="none" xmlns="http://www.w3.org/2000/svg">
  <path d="M0 10.4H6.2C9.4 10.4 11.6 12.4 11.6 15.4C11.6 18.4 9.4 20.4 6.2 20.4H3.6V26H0V10.4ZM6 17.2C7.4 17.2 8.2 16.4 8.2 15.4C8.2 14.4 7.4 13.6 6 13.6H3.6V17.2H6Z" fill="#FFFFFF"/>
  <path d="M13.0781 10.4H16.6781V19.6C16.6781 21.4 17.8781 22.4 19.4781 22.4C21.0781 22.4 22.2781 21.4 22.2781 19.6V10.4H25.8781V19.6C25.8781 23.8 23.0781 26.4 19.4781 26.4C15.8781 26.4 13.0781 23.8 13.0781 19.6V10.4Z" fill="#FFFFFF"/>
  <path d="M28.4375 10.4H32.0375V22.8H38.2375V26H28.4375V10.4Z" fill="#FFFFFF"/>
  <path d="M39.7188 10.4H49.1188V13.6H43.3188V16.6H48.3188V19.8H43.3188V22.8H49.1188V26H39.7188V10.4Z" fill="#FFFFFF"/>
  <path d="M50.5 10.4H56.3C59.7 10.4 61.9 12.2 61.9 15.2C61.9 18.2 59.7 20 56.3 20H54.1V26H50.5V10.4ZM56.1 17C57.5 17 58.3 16.4 58.3 15.2C58.3 14 57.5 13.4 56.1 13.4H54.1V17H56.1Z" fill="#FFFFFF"/>
  <path d="M63.3594 18.2C63.3594 13.6 66.9594 10 71.9594 10C76.9594 10 80.5594 13.6 80.5594 18.2C80.5594 22.8 76.9594 26.4 71.9594 26.4C66.9594 26.4 63.3594 22.8 63.3594 18.2ZM76.9594 18.2C76.9594 15.8 74.9594 13.8 71.9594 13.8C68.9594 13.8 67.0594 15.8 67.0594 18.2C67.0594 20.6 68.9594 22.6 71.9594 22.6C74.9594 22.6 76.9594 20.6 76.9594 18.2Z" fill="#FFFFFF"/>
  <path d="M92.6562 26L88.8562 20.2L88.0562 20.2V26H84.4562V10.4H90.8562C94.4562 10.4 96.6562 12.2 96.6562 15.2C96.6562 17.3 95.5562 18.7 93.9562 19.5L98.2562 26H92.6562ZM84.4562 17.2H90.4562C91.8562 17.2 92.8562 16.4 92.8562 15.2C92.8562 14 91.8562 13.4 90.4562 13.4H84.4562V17.2Z" fill="#FFFFFF"/>
  <path d="M102.938 29H99.3375L103.938 20.4L97.9375 10.4H101.738L105.538 17.2L109.337 10.4H113.137L102.938 29Z" fill="#FFFFFF"/>
  <path d="M83.9375 33H85.0375V38.2H88.0375V39.2H83.9375V33Z" fill="#FFFFFF"/>
  <path d="M88.8125 33H89.9125V36C89.9125 37.4 90.6125 38.2 91.8125 38.2C93.0125 38.2 93.6125 37.4 93.6125 36V33H94.7125V36C94.7125 38 93.6125 39.3 91.8125 39.3C90.0125 39.3 88.8125 38 88.8125 36V33Z" fill="#FFFFFF"/>
  <path d="M98.8906 39.2L96.8906 36.6H96.4906V39.2H95.3906V33H97.9906C99.3906 33 100.191 33.8 100.191 34.8C100.191 35.8 99.4906 36.4 98.5906 36.6L100.591 39.2H98.8906ZM96.4906 35.7H97.8906C98.4906 35.7 98.9906 35.3 98.9906 34.8C98.9906 34.3 98.4906 33.9 97.8906 33.9H96.4906V35.7Z" fill="#FFFFFF"/>
  <path d="M101.25 33H102.35V35.1H104.95V33H106.05V39.2H104.95V36.1H102.35V39.2H101.25V33Z" fill="#FFFFFF"/>
  <path d="M107.062 33H109.662C111.062 33 111.862 33.7 111.862 34.7C111.862 35.3 111.462 35.8 110.862 36C111.562 36.2 112.062 36.7 112.062 37.5C112.062 38.5 111.262 39.2 109.862 39.2H107.062V33ZM109.462 35.5C110.062 35.5 110.562 35.2 110.562 34.7C110.562 34.2 110.062 33.9 109.462 33.9H108.162V35.5H109.462ZM109.662 38.3C110.262 38.3 110.762 38 110.762 37.4C110.762 36.8 110.262 36.5 109.662 36.5H108.262V38.3H109.662Z" fill="#FFFFFF"/>
  <path d="M115.367 34L115.667 34.7C114.467 35.1 113.667 36.1 113.667 37.2C113.667 38.5 114.667 39.3 115.867 39.3C116.967 39.3 117.967 38.5 117.967 37.2C117.967 36.1 117.267 35.1 116.067 34.7L116.367 34C117.767 34.5 118.767 35.7 118.767 37.2C118.767 39.1 117.367 40.2 115.867 40.2C114.367 40.2 112.867 39.1 112.867 37.2C112.867 35.7 113.967 34.5 115.367 34Z" fill="#FFFFFF"/>
  <path d="M119.461 33H125.261V34H122.861V39.2H121.761V34H119.461V33Z" fill="#FFFFFF"/>
  <path d="M127.7 33H126V39.2H127.7C129.6 39.2 130.8 38 130.8 36.1C130.8 34.2 129.6 33 127.7 33ZM127.6 38.2H127.1V34H127.6C129 34 129.9 34.8 129.9 36.1C129.9 37.4 129 38.2 127.6 38.2Z" fill="#FFFFFF"/>
  <path d="M131.422 33H132.522V36.3L135.322 33H136.822L134.022 36.1L136.922 39.2H135.422L132.522 36.1V39.2H131.422V33Z" fill="#FFFFFF"/>
  <path d="M137.102 33H138.202V39.2H137.102V33Z" fill="#FFFFFF"/>
</svg> 