<svg width="24" height="24" viewBox="0 0 24 24" fill="none" xmlns="http://www.w3.org/2000/svg">
  <path d="M13 6V18H15V6H13ZM17 6V18H19V6H17ZM10 3H20C20.53 3 21.04 3.21 21.41 3.59C21.79 3.96 22 4.47 22 5V19C22 19.53 21.79 20.04 21.41 20.41C21.04 20.79 20.53 21 20 21H10C8.89 21 8 20.1 8 19V5C8 3.9 8.89 3 10 3ZM10 5V19H20V5H10ZM4 12H5C5.53 12 6 12.47 6 13V19C6 19.53 5.53 20 5 20H4C3.47 20 3 19.53 3 19V13C3 12.47 3.47 12 4 12ZM4 6H5C5.53 6 6 6.47 6 7V9C6 9.53 5.53 10 5 10H4C3.47 10 3 9.53 3 9V7C3 6.47 3.47 6 4 6Z" fill="#3B82F6"/>
</svg> 