<svg width="90" height="40" viewBox="0 0 90 40" fill="none" xmlns="http://www.w3.org/2000/svg">
  <path d="M39.4 19.9L24.5 5C23.3 3.8 21.4 3.8 20.2 5L5.3 19.9C4.1 21.1 4.1 23 5.3 24.2L20.2 39.1C21.4 40.3 23.3 40.3 24.5 39.1L39.4 24.2C40.6 23 40.6 21.1 39.4 19.9Z" fill="#00B4E1"/>
  <path d="M58.7 10.1L50.2 1.6C49.6 1 48.6 1 48 1.6L39.5 10.1C38.9 10.7 38.9 11.7 39.5 12.3L48 20.8C48.6 21.4 49.6 21.4 50.2 20.8L58.7 12.3C59.3 11.7 59.3 10.7 58.7 10.1Z" fill="#00B4E1"/>
  <path fill-rule="evenodd" clip-rule="evenodd" d="M24.9 13C24.9 15.5 28.5 19.4 32.2 19.4C35.9 19.4 38.8 15.5 38.8 13C38.8 10.5 36.6 9 32.9 9C29.2 9 24.9 10.5 24.9 13Z" fill="white"/>
  <path fill-rule="evenodd" clip-rule="evenodd" d="M11.2 21.8C11.2 24.3 14.5 28 18.2 28C21.9 28 24.5 24.3 24.5 21.8C24.5 19.3 22.3 17.8 18.6 17.8C14.9 17.8 11.2 19.3 11.2 21.8Z" fill="white"/>
</svg> 