<svg width="32" height="32" viewBox="0 0 32 32" fill="none" xmlns="http://www.w3.org/2000/svg">
  <path d="M27.0182 19.8306L10.2195 36.6293H0V0.364258H20.565L7.08879 13.867C4.18277 16.773 3.38189 18.6726 3.43481 20.4662C3.51429 22.2334 4.34172 23.9741 5.89058 25.4965C7.49254 27.1249 9.07434 27.9523 10.8679 28.0053C12.6351 28.0847 14.6407 27.2573 17.5467 24.3248L24.556 17.342C25.251 16.6205 25.7163 16.3908 26.2876 16.4702C26.7529 16.4702 27.2447 16.6734 27.6452 17.0004C28.0662 17.3949 28.2899 17.8484 28.3694 18.3548C28.4018 18.979 28.1456 19.5767 27.0182 19.8306Z" fill="#00B4E1"/>
</svg> 