<svg width="35" height="34" viewBox="0 0 35 34" fill="none" xmlns="http://www.w3.org/2000/svg">
<path d="M27.2917 15.5834C27.2917 10.1065 22.8518 5.66669 17.375 5.66669C11.8982 5.66669 7.45833 10.1065 7.45833 15.5834M23.0417 20.5417V23.375C23.0417 24.0333 23.0417 24.3624 23.0961 24.6361C23.3197 25.7601 24.1983 26.6392 25.3223 26.8627C25.596 26.9172 25.9251 26.9172 26.5833 26.9172C27.2416 26.9172 27.5707 26.9172 27.8444 26.8627C28.9684 26.6392 29.8468 25.7601 30.0704 24.6361C30.1248 24.3624 30.125 24.0333 30.125 23.375V20.5417C30.125 19.8834 30.1248 19.5537 30.0704 19.28C29.8468 18.156 28.9684 17.278 27.8444 17.0545C27.5707 17 27.2416 17 26.5833 17C25.9251 17 25.596 17 25.3223 17.0545C24.1983 17.278 23.3197 18.156 23.0961 19.28C23.0417 19.5537 23.0417 19.8834 23.0417 20.5417ZM11.7083 20.5417V23.375C11.7083 24.0333 11.7081 24.3624 11.6537 24.6361C11.4301 25.7601 10.5517 26.6392 9.42769 26.8627C9.154 26.9172 8.82498 26.9172 8.16673 26.9172C7.50847 26.9172 7.17934 26.9172 6.90564 26.8627C5.78168 26.6392 4.90301 25.7601 4.67944 24.6361C4.625 24.3624 4.625 24.0333 4.625 23.375V20.5417C4.625 19.8834 4.625 19.5537 4.67944 19.28C4.90301 18.156 5.78168 17.278 6.90564 17.0545C7.17934 17 7.50847 17 8.16673 17C8.82499 17 9.154 17 9.42769 17.0545C10.5517 17.278 11.4301 18.156 11.6537 19.28C11.7081 19.5537 11.7083 19.8834 11.7083 20.5417Z" stroke="#333638" stroke-width="2" stroke-linecap="round" stroke-linejoin="round"/>
</svg>
