<svg width="35" height="34" viewBox="0 0 35 34" fill="none" xmlns="http://www.w3.org/2000/svg">
<path d="M29.2083 9.91667H26.1606C25.4558 9.91667 24.9583 9.2048 24.9583 8.5C24.9583 6.15279 23.0555 4.25 20.7083 4.25C18.3611 4.25 16.4583 6.15279 16.4583 8.5C16.4583 9.2048 15.9609 9.91667 15.2561 9.91667H12.2083C11.4259 9.91667 10.7917 10.5509 10.7917 11.3333V14.3811C10.7917 15.0859 10.0798 15.5833 9.375 15.5833C7.02779 15.5833 5.125 17.4861 5.125 19.8333C5.125 22.1805 7.02779 24.0833 9.375 24.0833C10.0798 24.0833 10.7917 24.5808 10.7917 25.2856V28.3333C10.7917 29.1157 11.4259 29.75 12.2083 29.75L29.2083 29.75C29.9907 29.75 30.625 29.1157 30.625 28.3333V25.2856C30.625 24.5808 29.9131 24.0833 29.2083 24.0833C26.8611 24.0833 24.9583 22.1805 24.9583 19.8333C24.9583 17.4861 26.8611 15.5833 29.2083 15.5833C29.9131 15.5833 30.625 15.0859 30.625 14.3811L30.625 11.3333C30.625 10.5509 29.9907 9.91667 29.2083 9.91667Z" stroke="#333638" stroke-width="2" stroke-linecap="round" stroke-linejoin="round"/>
</svg>
