<svg width="35" height="34" viewBox="0 0 35 34" fill="none" xmlns="http://www.w3.org/2000/svg">
<path d="M17.625 19.8334H19.0417C20.6 19.8334 21.875 18.5584 21.875 17V2.83337H9.125C7 2.83337 5.14418 4.00919 4.18085 5.73752" stroke="#333638" stroke-width="2" stroke-linecap="round" stroke-linejoin="round"/>
<path d="M3.45831 24.0834C3.45831 26.435 5.35665 28.3334 7.70831 28.3334H9.12498C9.12498 26.775 10.4 25.5 11.9583 25.5C13.5166 25.5 14.7916 26.775 14.7916 28.3334H20.4583C20.4583 26.775 21.7333 25.5 23.2916 25.5C24.85 25.5 26.125 26.775 26.125 28.3334H27.5416C29.8933 28.3334 31.7916 26.435 31.7916 24.0834V19.8334H27.5416C26.7625 19.8334 26.125 19.1959 26.125 18.4167V14.1667C26.125 13.3875 26.7625 12.75 27.5416 12.75H29.3691L26.9467 8.51422C26.4367 7.63589 25.5017 7.08337 24.4817 7.08337H21.875V17C21.875 18.5584 20.6 19.8334 19.0416 19.8334H17.625" stroke="#333638" stroke-width="2" stroke-linecap="round" stroke-linejoin="round"/>
<path d="M11.9583 31.1667C13.5231 31.1667 14.7917 29.8981 14.7917 28.3333C14.7917 26.7685 13.5231 25.5 11.9583 25.5C10.3935 25.5 9.125 26.7685 9.125 28.3333C9.125 29.8981 10.3935 31.1667 11.9583 31.1667Z" stroke="#333638" stroke-width="2" stroke-linecap="round" stroke-linejoin="round"/>
<path d="M23.2916 31.1667C24.8565 31.1667 26.125 29.8981 26.125 28.3333C26.125 26.7685 24.8565 25.5 23.2916 25.5C21.7268 25.5 20.4583 26.7685 20.4583 28.3333C20.4583 29.8981 21.7268 31.1667 23.2916 31.1667Z" stroke="#333638" stroke-width="2" stroke-linecap="round" stroke-linejoin="round"/>
<path d="M31.7917 17V19.8333H27.5417C26.7625 19.8333 26.125 19.1958 26.125 18.4167V14.1667C26.125 13.3875 26.7625 12.75 27.5417 12.75H29.3691L31.7917 17Z" stroke="#333638" stroke-width="2" stroke-linecap="round" stroke-linejoin="round"/>
<path d="M3.45831 11.3334H11.9583" stroke="#333638" stroke-width="2" stroke-linecap="round" stroke-linejoin="round"/>
<path d="M3.45831 15.5834H9.12498" stroke="#333638" stroke-width="2" stroke-linecap="round" stroke-linejoin="round"/>
<path d="M3.45831 19.8334H6.29165" stroke="#333638" stroke-width="2" stroke-linecap="round" stroke-linejoin="round"/>
</svg>
